# xmcd
#
# Track frame offsets:
#	150
#	16794
#	33306
#	49162
#	66005
#	80314
#	97716
#	114925
#	134877
#	151031
#	171765
#	188366
#
# Disc length: 2741 seconds
#
# Revision: 1
# Processed by: cddbd v1.5.2PL0 Copyright (c) Steve Scherf et al.
# Submitted via: EZCDAudioConverter 7.1.5.1
#
DISCID=830ab30c
DTITLE=DevilDriver - Outlaws 'Til The End, Vol. 1
DYEAR=2018
DGENRE=Metal
TTITLE0=Country Heroes
TTITLE1=Whiskey River
TTITLE2=Outlaw Man
TTITLE3=Ghost Riders in the Sky
TTITLE4=I'm The Only Hell (Mama Ever Raised)
TTITLE5=If Drinkin' Don't Kill Me (Her Memory Will)
TTITLE6=The Man Comes Around
TTITLE7=A Thousand Miles From Nowhere
TTITLE8=Copperhead Road
TTITLE9=Dad's Gonna Kill Me
TTITLE10=A Country Boy Can Survive
TTITLE11=The Ride
EXTD=
EXTT0=
EXTT1=
EXTT2=
EXTT3=
EXTT4=
EXTT5=
EXTT6=
EXTT7=
EXTT8=
EXTT9=
EXTT10=
EXTT11=
PLAYORDER=
